<svg xmlns="http://www.w3.org/2000/svg" xmlns:xlink="http://www.w3.org/1999/xlink" width="692.6400000000001" height="100.94400000000002"><path fill="currentColor" role="img" d="M34.42 33.84L34.42 33.84Q33.26 36.29 32.11 38.52Q30.96 40.75 29.95 42.77L29.95 42.77Q33.12 42.77 36.25 42.73Q39.38 42.70 41.98 42.66Q44.57 42.62 46.55 42.59Q48.53 42.55 49.54 42.48L49.54 42.48Q49.03 44.06 48.49 45.61Q47.95 47.16 47.59 48.67L47.59 48.67Q46.66 48.60 44.57 48.56Q42.48 48.53 39.78 48.49Q37.08 48.46 33.84 48.46Q30.60 48.46 27.29 48.46L27.29 48.46Q23.98 55.37 22.28 59.98Q20.59 64.58 20.59 67.68L20.59 67.68Q20.59 70.13 21.74 71.32Q22.90 72.50 25.13 72.50L25.13 72.50Q28.51 72.50 31.86 70.20Q35.21 67.90 38.95 62.86L38.95 62.86Q40.46 64.44 41.51 65.45Q42.55 66.46 43.70 67.18L43.70 67.18Q38.45 73.37 33.34 75.96Q28.22 78.55 23.33 78.48L23.33 78.48Q18.58 78.41 16.13 76.18Q13.68 73.94 13.68 69.34L13.68 69.34Q13.68 65.16 15.52 59.83Q17.35 54.50 20.09 48.46L20.09 48.46Q15.62 48.46 12.13 48.53Q8.64 48.60 7.34 48.67L7.34 48.67Q7.85 47.09 8.32 45.54Q8.78 43.99 9.00 42.48L9.00 42.48Q10.37 42.62 14.15 42.70Q17.93 42.77 22.68 42.77L22.68 42.77Q23.62 40.75 24.66 38.70Q25.70 36.65 26.64 34.56L26.64 34.56Q28.51 34.56 30.49 34.38Q32.47 34.20 34.42 33.84ZM67.39 41.98L67.39 41.98Q70.49 41.98 72.29 43.67Q74.09 45.36 74.09 48.67L74.09 48.67Q74.09 51.48 72.90 54.18Q71.71 56.88 70.31 59.44Q68.90 61.99 67.72 64.33Q66.53 66.67 66.53 68.76L66.53 68.76Q66.53 70.70 67.64 71.53Q68.76 72.36 70.56 72.36L70.56 72.36Q72.72 72.36 75.38 70.99Q78.05 69.62 80.96 66.28Q83.88 62.93 87.01 57.31Q90.14 51.70 93.24 43.20L93.24 43.20Q93.31 42.91 93.46 42.59Q93.60 42.26 93.67 41.98L93.67 41.98Q95.11 42.26 96.98 42.48Q98.86 42.70 100.94 42.77L100.94 42.77Q96.48 52.63 93.96 59.29Q91.44 65.95 91.44 69.62L91.44 69.62Q91.44 70.99 92.12 71.75Q92.81 72.50 94.25 72.50L94.25 72.50Q95.90 72.50 97.34 71.24Q98.78 69.98 100.37 67.68L100.37 67.68Q101.09 68.90 101.84 70.02Q102.60 71.14 103.61 72.14L103.61 72.14Q100.94 74.95 98.24 76.64Q95.54 78.34 92.16 78.34L92.16 78.34Q89.28 78.34 87.16 76.68Q85.03 75.02 85.03 71.50L85.03 71.50Q85.03 70.42 85.25 69.01Q85.46 67.61 85.97 65.81L85.97 65.81L85.25 65.81Q81.07 72.94 76.46 75.60Q71.86 78.26 67.54 78.26L67.54 78.26Q63.86 78.26 61.60 76.39Q59.33 74.52 59.33 70.63L59.33 70.63Q59.33 67.68 60.59 64.84Q61.85 61.99 63.32 59.36Q64.80 56.74 66.06 54.32Q67.32 51.91 67.32 49.82L67.32 49.82Q67.32 48.67 66.82 48.13Q66.31 47.59 65.38 47.59L65.38 47.59Q64.15 47.59 62.64 48.64Q61.13 49.68 58.90 52.85L58.90 52.85Q58.18 51.62 57.38 50.62Q56.59 49.61 55.73 48.74L55.73 48.74Q58.68 45.36 61.52 43.67Q64.37 41.98 67.39 41.98ZM128.02 68.33L128.02 68.33Q128.02 70.27 129.28 71.42Q130.54 72.58 133.34 72.58L133.34 72.58Q137.16 72.58 141.66 69.73Q146.16 66.89 151.13 60.05L151.13 60.05Q152.50 61.42 153.58 62.32Q154.66 63.22 155.66 63.94L155.66 63.94Q149.18 71.57 143.57 75.02Q137.95 78.48 131.62 78.48L131.62 78.48Q126.43 78.48 123.66 76.28Q120.89 74.09 120.89 69.62L120.89 69.62Q120.89 65.88 122.76 61.20Q124.63 56.52 126.83 52.02Q129.02 47.52 130.90 43.56Q132.77 39.60 132.77 37.22L132.77 37.22Q132.77 36.07 132.08 35.42Q131.40 34.78 129.96 34.78L129.96 34.78Q127.44 34.78 124.06 36.68Q120.67 38.59 115.34 42.70L115.34 42.70Q114.48 41.11 113.65 39.92Q112.82 38.74 112.10 37.80L112.10 37.80Q118.08 33.26 123.26 30.85Q128.45 28.44 132.77 28.44L132.77 28.44Q136.08 28.44 138.10 30.17Q140.11 31.90 140.11 35.35L140.11 35.35Q140.11 38.66 138.20 43.20Q136.30 47.74 134.06 52.34Q131.83 56.95 129.92 61.24Q128.02 65.52 128.02 68.33ZM186.41 30.02L186.41 30.02Q186.41 27.50 188.10 25.70Q189.79 23.90 192.89 23.90L192.89 23.90Q195.98 23.90 197.68 25.70Q199.37 27.50 199.37 30.02L199.37 30.02Q199.37 32.62 197.68 34.38Q195.98 36.14 192.89 36.14L192.89 36.14Q189.50 36.14 187.96 34.38Q186.41 32.62 186.41 30.02ZM177.98 70.27L177.98 70.27Q177.98 67.61 179.14 64.87Q180.29 62.14 181.69 59.62Q183.10 57.10 184.25 54.83Q185.40 52.56 185.40 50.83L185.40 50.83Q185.40 49.46 184.61 48.78Q183.82 48.10 182.23 48.10L182.23 48.10Q179.42 48.10 175.79 50.22Q172.15 52.34 166.97 57.53L166.97 57.53Q165.96 56.02 165.06 55.01Q164.16 54 163.22 52.99L163.22 52.99Q169.63 47.45 174.60 44.64Q179.57 41.83 184.54 41.83L184.54 41.83Q188.06 41.83 190.37 43.60Q192.67 45.36 192.67 48.89L192.67 48.89Q192.67 50.98 191.45 53.68Q190.22 56.38 188.78 59.11Q187.34 61.85 186.12 64.44Q184.90 67.03 184.90 68.90L184.90 68.90Q184.90 70.85 185.87 71.75Q186.84 72.65 189.14 72.65L189.14 72.65Q192.31 72.65 196.06 70.45Q199.80 68.26 203.33 63.14L203.33 63.14Q204.26 64.15 205.45 65.16Q206.64 66.17 207.79 66.89L207.79 66.89Q202.82 73.37 197.64 75.92Q192.46 78.48 187.78 78.48L187.78 78.48Q183.02 78.48 180.50 76.39Q177.98 74.30 177.98 70.27ZM243.29 41.90L243.29 41.90Q251.64 41.83 255.85 45.86Q260.06 49.90 259.99 56.52L259.99 56.52Q259.99 60.41 258.37 64.33Q256.75 68.26 253.58 71.39Q250.42 74.52 245.77 76.50Q241.13 78.48 235.22 78.48L235.22 78.48Q226.73 78.48 222.55 74.41Q218.38 70.34 218.38 63.79L218.38 63.79Q218.38 59.90 220.00 55.98Q221.62 52.06 224.78 48.92Q227.95 45.79 232.60 43.85Q237.24 41.90 243.29 41.90ZM242.42 47.59L242.42 47.59Q238.54 47.59 235.37 49.00Q232.20 50.40 230.00 52.63Q227.81 54.86 226.58 57.71Q225.36 60.55 225.36 63.36L225.36 63.36Q225.36 68.11 228.17 70.49Q230.98 72.86 235.94 72.86L235.94 72.86Q239.76 72.86 242.93 71.39Q246.10 69.91 248.36 67.64Q250.63 65.38 251.89 62.53Q253.15 59.69 253.15 56.95L253.15 56.95Q253.15 52.20 250.20 49.86Q247.25 47.52 242.42 47.59ZM279.22 53.42L279.22 53.42Q279.07 53.42 278.86 53.57Q278.64 53.71 278.35 54.07L278.35 54.07Q278.28 53.78 278.14 53.57Q277.99 53.35 277.85 53.21L277.85 53.21Q278.35 52.70 278.78 52.49Q279.22 52.27 279.72 52.27L279.72 52.27Q280.30 52.27 280.62 52.56Q280.94 52.85 280.94 53.42L280.94 53.42Q280.94 54.14 280.58 54.94Q280.22 55.73 280.22 56.23L280.22 56.23Q280.22 56.45 280.33 56.56Q280.44 56.66 280.73 56.66L280.73 56.66Q281.59 56.66 282.56 55.80Q283.54 54.94 283.75 54L283.75 54Q283.68 54.07 283.50 54.11Q283.32 54.14 283.18 54.14L283.18 54.14Q282.89 54.14 282.64 53.96Q282.38 53.78 282.38 53.35L282.38 53.35Q282.38 52.85 282.74 52.56Q283.10 52.27 283.68 52.27L283.68 52.27Q284.26 52.27 284.62 52.63Q284.98 52.99 284.98 53.71L284.98 53.71Q284.98 55.15 283.54 56.56Q282.10 57.96 280.30 57.96L280.30 57.96Q279.58 57.96 279.18 57.60Q278.78 57.24 278.78 56.52L278.78 56.52Q278.78 55.80 279.14 55.01Q279.50 54.22 279.50 53.71L279.50 53.71Q279.50 53.64 279.43 53.53Q279.36 53.42 279.22 53.42ZM288.94 53.42L288.94 53.42Q288.94 54.22 288.43 54.97Q287.93 55.73 287.93 56.23L287.93 56.23Q287.93 56.45 288.04 56.56Q288.14 56.66 288.36 56.66L288.36 56.66Q289.08 56.66 290.02 55.40Q290.95 54.14 291.46 52.34L291.46 52.34Q291.74 52.42 292.18 52.42Q292.61 52.42 293.11 52.49L293.11 52.49Q292.46 53.78 292.03 54.83Q291.60 55.87 291.60 56.30L291.60 56.30Q291.60 56.45 291.67 56.56Q291.74 56.66 291.89 56.66L291.89 56.66Q292.10 56.66 292.28 56.52Q292.46 56.38 292.68 56.16L292.68 56.16Q292.75 56.45 292.93 56.74Q293.11 57.02 293.18 57.17L293.18 57.17Q292.82 57.46 292.36 57.71Q291.89 57.96 291.38 57.96L291.38 57.96Q290.88 57.96 290.52 57.67Q290.16 57.38 290.16 56.81L290.16 56.81Q290.16 56.59 290.20 56.41Q290.23 56.23 290.30 56.09L290.30 56.09L290.16 56.09Q289.58 57.10 288.90 57.53Q288.22 57.96 287.57 57.96L287.57 57.96Q286.99 57.96 286.63 57.64Q286.27 57.31 286.27 56.74L286.27 56.74Q286.27 55.94 286.85 55.12Q287.42 54.29 287.42 53.78L287.42 53.78Q287.42 53.64 287.35 53.57Q287.28 53.50 287.21 53.50L287.21 53.50Q287.06 53.50 286.85 53.64Q286.63 53.78 286.34 54.14L286.34 54.14Q286.27 53.86 286.13 53.64Q285.98 53.42 285.84 53.21L285.84 53.21Q286.27 52.78 286.74 52.56Q287.21 52.34 287.71 52.34L287.71 52.34Q288.22 52.34 288.58 52.63Q288.94 52.92 288.94 53.42ZM297.29 56.74L297.29 56.74Q297.79 56.74 298.37 56.30Q298.94 55.87 299.66 54.94L299.66 54.94Q299.88 55.22 300.10 55.40Q300.31 55.58 300.53 55.73L300.53 55.73Q299.59 56.88 298.66 57.42Q297.72 57.96 296.78 57.96L296.78 57.96Q295.92 57.96 295.49 57.60Q295.06 57.24 295.06 56.52L295.06 56.52Q295.06 55.37 295.88 54Q296.71 52.63 296.71 51.98L296.71 51.98Q296.71 51.84 296.64 51.77Q296.57 51.70 296.35 51.70L296.35 51.70Q296.06 51.70 295.63 51.98Q295.20 52.27 294.55 52.78L294.55 52.78Q294.41 52.49 294.23 52.20Q294.05 51.91 293.90 51.77L293.90 51.77Q294.84 51.05 295.63 50.69Q296.42 50.33 297.14 50.33L297.14 50.33Q297.72 50.33 298.04 50.62Q298.37 50.90 298.37 51.41L298.37 51.41Q298.37 52.42 297.50 53.93Q296.64 55.44 296.64 56.16L296.64 56.16Q296.64 56.45 296.78 56.59Q296.93 56.74 297.29 56.74ZM303.34 53.57L303.34 53.57Q303.48 52.13 304.13 51.23Q304.78 50.33 306.14 50.33L306.14 50.33Q306.86 50.33 307.30 50.62Q307.73 50.90 307.73 51.41L307.73 51.41Q307.73 51.84 307.48 52.13Q307.22 52.42 306.79 52.42L306.79 52.42Q306.29 52.42 306.04 52.16Q305.78 51.91 305.78 51.55L305.78 51.55L305.78 51.48Q305.35 51.55 305.06 52.09Q304.78 52.63 304.70 53.57L304.70 53.57Q305.21 53.57 305.89 53.57Q306.58 53.57 307.51 53.50L307.51 53.50Q307.44 53.78 307.37 54.11Q307.30 54.43 307.30 54.72L307.30 54.72L304.63 54.72Q304.56 55.37 304.49 56.12Q304.42 56.88 304.34 57.17L304.34 57.17Q304.13 58.75 303.52 59.44Q302.90 60.12 301.82 60.12L301.82 60.12Q301.10 60.12 300.71 59.80Q300.31 59.47 300.31 58.97L300.31 58.97Q300.31 58.54 300.56 58.28Q300.82 58.03 301.32 58.03L301.32 58.03Q301.75 58.03 301.97 58.25Q302.18 58.46 302.26 58.90L302.26 58.90Q302.54 58.68 302.72 58.32Q302.90 57.96 302.98 57.46L302.98 57.46Q303.05 56.95 303.12 56.16Q303.19 55.37 303.26 54.72L303.26 54.72L301.32 54.72Q301.39 54.43 301.46 54.11Q301.54 53.78 301.54 53.50L301.54 53.50Q302.04 53.57 302.54 53.57Q303.05 53.57 303.34 53.57ZM292.97 31.46L292.97 31.46Q298.30 31.46 302.69 33.19Q307.08 34.92 310.18 38.05Q313.27 41.18 315.00 45.58Q316.73 49.97 316.73 55.15L316.73 55.15Q316.73 60.41 315.00 64.76Q313.27 69.12 310.18 72.25Q307.08 75.38 302.69 77.11Q298.30 78.84 292.97 78.84L292.97 78.84Q287.64 78.84 283.28 77.11Q278.93 75.38 275.83 72.25Q272.74 69.12 271.01 64.76Q269.28 60.41 269.28 55.15L269.28 55.15Q269.28 49.97 271.01 45.58Q272.74 41.18 275.83 38.05Q278.93 34.92 283.28 33.19Q287.64 31.46 292.97 31.46ZM292.97 32.83L292.97 32.83Q288.00 32.83 283.90 34.49Q279.79 36.14 276.88 39.06Q273.96 41.98 272.34 46.12Q270.72 50.26 270.72 55.15L270.72 55.15Q270.72 60.12 272.34 64.22Q273.96 68.33 276.88 71.28Q279.79 74.23 283.90 75.85Q288.00 77.47 292.97 77.47L292.97 77.47Q297.94 77.47 302.08 75.85Q306.22 74.23 309.13 71.28Q312.05 68.33 313.67 64.22Q315.29 60.12 315.29 55.15L315.29 55.15Q315.29 50.26 313.67 46.12Q312.05 41.98 309.13 39.06Q306.22 36.14 302.08 34.49Q297.94 32.83 292.97 32.83ZM332.50 53.42L332.50 53.42Q332.35 53.42 332.14 53.57Q331.92 53.71 331.63 54.07L331.63 54.07Q331.56 53.78 331.42 53.57Q331.27 53.35 331.13 53.21L331.13 53.21Q331.63 52.70 332.06 52.49Q332.50 52.27 333.00 52.27L333.00 52.27Q333.58 52.27 333.90 52.56Q334.22 52.85 334.22 53.42L334.22 53.42Q334.22 54.14 333.86 54.94Q333.50 55.73 333.50 56.23L333.50 56.23Q333.50 56.45 333.61 56.56Q333.72 56.66 334.01 56.66L334.01 56.66Q334.87 56.66 335.84 55.80Q336.82 54.94 337.03 54L337.03 54Q336.96 54.07 336.78 54.11Q336.60 54.14 336.46 54.14L336.46 54.14Q336.17 54.14 335.92 53.96Q335.66 53.78 335.66 53.35L335.66 53.35Q335.66 52.85 336.02 52.56Q336.38 52.27 336.96 52.27L336.96 52.27Q337.54 52.27 337.90 52.63Q338.26 52.99 338.26 53.71L338.26 53.71Q338.26 55.15 336.82 56.56Q335.38 57.96 333.58 57.96L333.58 57.96Q332.86 57.96 332.46 57.60Q332.06 57.24 332.06 56.52L332.06 56.52Q332.06 55.80 332.42 55.01Q332.78 54.22 332.78 53.71L332.78 53.71Q332.78 53.64 332.71 53.53Q332.64 53.42 332.50 53.42ZM342.22 53.42L342.22 53.42Q342.22 54.22 341.71 54.97Q341.21 55.73 341.21 56.23L341.21 56.23Q341.21 56.45 341.32 56.56Q341.42 56.66 341.64 56.66L341.64 56.66Q342.36 56.66 343.30 55.40Q344.23 54.14 344.74 52.34L344.74 52.34Q345.02 52.42 345.46 52.42Q345.89 52.42 346.39 52.49L346.39 52.49Q345.74 53.78 345.31 54.83Q344.88 55.87 344.88 56.30L344.88 56.30Q344.88 56.45 344.95 56.56Q345.02 56.66 345.17 56.66L345.17 56.66Q345.38 56.66 345.56 56.52Q345.74 56.38 345.96 56.16L345.96 56.16Q346.03 56.45 346.21 56.74Q346.39 57.02 346.46 57.17L346.46 57.17Q346.10 57.46 345.64 57.71Q345.17 57.96 344.66 57.96L344.66 57.96Q344.16 57.96 343.80 57.67Q343.44 57.38 343.44 56.81L343.44 56.81Q343.44 56.59 343.48 56.41Q343.51 56.23 343.58 56.09L343.58 56.09L343.44 56.09Q342.86 57.10 342.18 57.53Q341.50 57.96 340.85 57.96L340.85 57.96Q340.27 57.96 339.91 57.64Q339.55 57.31 339.55 56.74L339.55 56.74Q339.55 55.94 340.13 55.12Q340.70 54.29 340.70 53.78L340.70 53.78Q340.70 53.64 340.63 53.57Q340.56 53.50 340.49 53.50L340.49 53.50Q340.34 53.50 340.13 53.64Q339.91 53.78 339.62 54.14L339.62 54.14Q339.55 53.86 339.41 53.64Q339.26 53.42 339.12 53.21L339.12 53.21Q339.55 52.78 340.02 52.56Q340.49 52.34 340.99 52.34L340.99 52.34Q341.50 52.34 341.86 52.63Q342.22 52.92 342.22 53.42ZM350.57 56.74L350.57 56.74Q351.07 56.74 351.65 56.30Q352.22 55.87 352.94 54.94L352.94 54.94Q353.16 55.22 353.38 55.40Q353.59 55.58 353.81 55.73L353.81 55.73Q352.87 56.88 351.94 57.42Q351.00 57.96 350.06 57.96L350.06 57.96Q349.20 57.96 348.77 57.60Q348.34 57.24 348.34 56.52L348.34 56.52Q348.34 55.37 349.16 54Q349.99 52.63 349.99 51.98L349.99 51.98Q349.99 51.84 349.92 51.77Q349.85 51.70 349.63 51.70L349.63 51.70Q349.34 51.70 348.91 51.98Q348.48 52.27 347.83 52.78L347.83 52.78Q347.69 52.49 347.51 52.20Q347.33 51.91 347.18 51.77L347.18 51.77Q348.12 51.05 348.91 50.69Q349.70 50.33 350.42 50.33L350.42 50.33Q351.00 50.33 351.32 50.62Q351.65 50.90 351.65 51.41L351.65 51.41Q351.65 52.42 350.78 53.93Q349.92 55.44 349.92 56.16L349.92 56.16Q349.92 56.45 350.06 56.59Q350.21 56.74 350.57 56.74ZM356.62 53.57L356.62 53.57Q356.76 52.13 357.41 51.23Q358.06 50.33 359.42 50.33L359.42 50.33Q360.14 50.33 360.58 50.62Q361.01 50.90 361.01 51.41L361.01 51.41Q361.01 51.84 360.76 52.13Q360.50 52.42 360.07 52.42L360.07 52.42Q359.57 52.42 359.32 52.16Q359.06 51.91 359.06 51.55L359.06 51.55L359.06 51.48Q358.63 51.55 358.34 52.09Q358.06 52.63 357.98 53.57L357.98 53.57Q358.49 53.57 359.17 53.57Q359.86 53.57 360.79 53.50L360.79 53.50Q360.72 53.78 360.65 54.11Q360.58 54.43 360.58 54.72L360.58 54.72L357.91 54.72Q357.84 55.37 357.77 56.12Q357.70 56.88 357.62 57.17L357.62 57.17Q357.41 58.75 356.80 59.44Q356.18 60.12 355.10 60.12L355.10 60.12Q354.38 60.12 353.99 59.80Q353.59 59.47 353.59 58.97L353.59 58.97Q353.59 58.54 353.84 58.28Q354.10 58.03 354.60 58.03L354.60 58.03Q355.03 58.03 355.25 58.25Q355.46 58.46 355.54 58.90L355.54 58.90Q355.82 58.68 356.00 58.32Q356.18 57.96 356.26 57.46L356.26 57.46Q356.33 56.95 356.40 56.16Q356.47 55.37 356.54 54.72L356.54 54.72L354.60 54.72Q354.67 54.43 354.74 54.11Q354.82 53.78 354.82 53.50L354.82 53.50Q355.32 53.57 355.82 53.57Q356.33 53.57 356.62 53.57ZM346.25 31.46L346.25 31.46Q351.58 31.46 355.97 33.19Q360.36 34.92 363.46 38.05Q366.55 41.18 368.28 45.58Q370.01 49.97 370.01 55.15L370.01 55.15Q370.01 60.41 368.28 64.76Q366.55 69.12 363.46 72.25Q360.36 75.38 355.97 77.11Q351.58 78.84 346.25 78.84L346.25 78.84Q340.92 78.84 336.56 77.11Q332.21 75.38 329.11 72.25Q326.02 69.12 324.29 64.76Q322.56 60.41 322.56 55.15L322.56 55.15Q322.56 49.97 324.29 45.58Q326.02 41.18 329.11 38.05Q332.21 34.92 336.56 33.19Q340.92 31.46 346.25 31.46ZM346.25 32.83L346.25 32.83Q341.28 32.83 337.18 34.49Q333.07 36.14 330.16 39.06Q327.24 41.98 325.62 46.12Q324.00 50.26 324.00 55.15L324.00 55.15Q324.00 60.12 325.62 64.22Q327.24 68.33 330.16 71.28Q333.07 74.23 337.18 75.85Q341.28 77.47 346.25 77.47L346.25 77.47Q351.22 77.47 355.36 75.85Q359.50 74.23 362.41 71.28Q365.33 68.33 366.95 64.22Q368.57 60.12 368.57 55.15L368.57 55.15Q368.57 50.26 366.95 46.12Q365.33 41.98 362.41 39.06Q359.50 36.14 355.36 34.49Q351.22 32.83 346.25 32.83ZM400.10 77.76L400.10 77.76Q399.38 77.69 398.05 77.65Q396.72 77.62 395.28 77.62Q393.84 77.62 392.40 77.65Q390.96 77.69 390.02 77.76L390.02 77.76Q389.81 74.30 389.34 69.19Q388.87 64.08 388.33 58.79Q387.79 53.50 387.25 48.71Q386.71 43.92 386.35 41.18L386.35 41.18Q386.14 39.60 385.31 38.77Q384.48 37.94 382.68 37.94L382.68 37.94Q382.25 37.94 381.71 37.94Q381.17 37.94 380.66 38.02L380.66 38.02Q380.95 36.94 381.53 35.21Q382.10 33.48 382.32 32.54L382.32 32.54Q383.33 32.62 386.46 32.65Q389.59 32.69 393.12 32.69Q396.65 32.69 399.78 32.65Q402.91 32.62 403.92 32.54L403.92 32.54Q403.34 33.91 402.88 35.28Q402.41 36.65 402.05 38.02L402.05 38.02Q401.33 37.94 400.39 37.94Q399.46 37.94 397.44 37.94L397.44 37.94Q395.06 37.94 394.06 38.95Q393.05 39.96 393.12 41.98L393.12 41.98Q393.19 44.14 393.55 47.99Q393.91 51.84 394.38 56.23Q394.85 60.62 395.39 65.02Q395.93 69.41 396.36 72.72L396.36 72.72Q398.52 69.19 401.04 65.23Q403.56 61.27 406.01 57.42Q408.46 53.57 410.69 49.93Q412.92 46.30 414.65 43.56L414.65 43.56Q415.44 42.19 415.80 41.36Q416.16 40.54 416.16 39.74L416.16 39.74Q416.16 38.81 415.44 38.38Q414.72 37.94 412.92 37.94L412.92 37.94Q412.27 37.94 410.87 37.94Q409.46 37.94 408.67 38.02L408.67 38.02Q409.03 36.94 409.57 35.21Q410.11 33.48 410.40 32.54L410.40 32.54Q411.41 32.62 414.61 32.65Q417.82 32.69 421.42 32.69Q425.02 32.69 428.18 32.65Q431.35 32.62 432.36 32.54L432.36 32.54Q431.78 33.91 431.24 35.28Q430.70 36.65 430.42 38.02L430.42 38.02Q429.98 38.02 429.48 37.98Q428.98 37.94 428.54 37.94L428.54 37.94Q426.82 37.94 425.88 38.59Q424.94 39.24 423.58 41.11L423.58 41.11Q421.92 43.42 418.90 47.99Q415.87 52.56 412.49 57.85Q409.10 63.14 405.76 68.54Q402.41 73.94 400.10 77.76ZM452.81 30.02L452.81 30.02Q452.81 27.50 454.50 25.70Q456.19 23.90 459.29 23.90L459.29 23.90Q462.38 23.90 464.08 25.70Q465.77 27.50 465.77 30.02L465.77 30.02Q465.77 32.62 464.08 34.38Q462.38 36.14 459.29 36.14L459.29 36.14Q455.90 36.14 454.36 34.38Q452.81 32.62 452.81 30.02ZM444.38 70.27L444.38 70.27Q444.38 67.61 445.54 64.87Q446.69 62.14 448.09 59.62Q449.50 57.10 450.65 54.83Q451.80 52.56 451.80 50.83L451.80 50.83Q451.80 49.46 451.01 48.78Q450.22 48.10 448.63 48.10L448.63 48.10Q445.82 48.10 442.19 50.22Q438.55 52.34 433.37 57.53L433.37 57.53Q432.36 56.02 431.46 55.01Q430.56 54 429.62 52.99L429.62 52.99Q436.03 47.45 441.00 44.64Q445.97 41.83 450.94 41.83L450.94 41.83Q454.46 41.83 456.77 43.60Q459.07 45.36 459.07 48.89L459.07 48.89Q459.07 50.98 457.85 53.68Q456.62 56.38 455.18 59.11Q453.74 61.85 452.52 64.44Q451.30 67.03 451.30 68.90L451.30 68.90Q451.30 70.85 452.27 71.75Q453.24 72.65 455.54 72.65L455.54 72.65Q458.71 72.65 462.46 70.45Q466.20 68.26 469.73 63.14L469.73 63.14Q470.66 64.15 471.85 65.16Q473.04 66.17 474.19 66.89L474.19 66.89Q469.22 73.37 464.04 75.92Q458.86 78.48 454.18 78.48L454.18 78.48Q449.42 78.48 446.90 76.39Q444.38 74.30 444.38 70.27ZM509.69 47.45L509.69 47.45Q502.63 47.45 497.95 51.16Q493.27 54.86 492.12 60.19L492.12 60.19Q505.51 59.98 511.74 58.10Q517.97 56.23 517.97 52.42L517.97 52.42Q517.97 50.04 515.84 48.74Q513.72 47.45 509.69 47.45ZM504.58 73.01L504.58 73.01Q508.46 73.01 513.07 71.64Q517.68 70.27 521.35 66.60L521.35 66.60Q522.29 68.04 523.15 69.12Q524.02 70.20 524.81 71.06L524.81 71.06Q519.48 75.46 514.08 76.97Q508.68 78.48 503.28 78.48L503.28 78.48Q493.99 78.48 489.46 74.52Q484.92 70.56 484.92 64.08L484.92 64.08Q484.92 59.83 486.61 55.80Q488.30 51.77 491.54 48.67Q494.78 45.58 499.61 43.70Q504.43 41.83 510.55 41.83L510.55 41.83Q517.75 41.83 521.24 44.75Q524.74 47.66 524.74 51.77L524.74 51.77Q524.74 58.25 516.46 61.45Q508.18 64.66 491.76 64.37L491.76 64.37Q492.05 68.83 495.29 70.92Q498.53 73.01 504.58 73.01ZM559.37 30.02L559.37 30.02Q559.37 27.50 561.06 25.70Q562.75 23.90 565.85 23.90L565.85 23.90Q568.94 23.90 570.64 25.70Q572.33 27.50 572.33 30.02L572.33 30.02Q572.33 32.62 570.64 34.38Q568.94 36.14 565.85 36.14L565.85 36.14Q562.46 36.14 560.92 34.38Q559.37 32.62 559.37 30.02ZM550.94 70.27L550.94 70.27Q550.94 67.61 552.10 64.87Q553.25 62.14 554.65 59.62Q556.06 57.10 557.21 54.83Q558.36 52.56 558.36 50.83L558.36 50.83Q558.36 49.46 557.57 48.78Q556.78 48.10 555.19 48.10L555.19 48.10Q552.38 48.10 548.75 50.22Q545.11 52.34 539.93 57.53L539.93 57.53Q538.92 56.02 538.02 55.01Q537.12 54 536.18 52.99L536.18 52.99Q542.59 47.45 547.56 44.64Q552.53 41.83 557.50 41.83L557.50 41.83Q561.02 41.83 563.33 43.60Q565.63 45.36 565.63 48.89L565.63 48.89Q565.63 50.98 564.41 53.68Q563.18 56.38 561.74 59.11Q560.30 61.85 559.08 64.44Q557.86 67.03 557.86 68.90L557.86 68.90Q557.86 70.85 558.83 71.75Q559.80 72.65 562.10 72.65L562.10 72.65Q565.27 72.65 569.02 70.45Q572.76 68.26 576.29 63.14L576.29 63.14Q577.22 64.15 578.41 65.16Q579.60 66.17 580.75 66.89L580.75 66.89Q575.78 73.37 570.60 75.92Q565.42 78.48 560.74 78.48L560.74 78.48Q555.98 78.48 553.46 76.39Q550.94 74.30 550.94 70.27ZM617.62 77.76L617.62 77.76Q616.03 77.69 611.60 77.65Q607.18 77.62 602.21 77.62Q597.24 77.62 592.88 77.65Q588.53 77.69 587.09 77.76L587.09 77.76Q587.66 76.32 588.24 74.81Q588.82 73.30 589.10 71.78L589.10 71.78Q589.90 71.86 591.80 71.93Q593.71 72 596.16 72L596.16 72Q597.67 72 598.57 71.39Q599.47 70.78 600.26 68.76L600.26 68.76Q602.86 62.35 604.19 57.60Q605.52 52.85 605.52 50.47L605.52 50.47Q605.52 48.96 604.98 48.13Q604.44 47.30 603.07 47.30L603.07 47.30Q601.27 47.30 599.15 48.74Q597.02 50.18 594.79 52.85L594.79 52.85Q593.86 51.48 593.06 50.44Q592.27 49.39 591.48 48.60L591.48 48.60Q594.94 45.29 598.14 43.52Q601.34 41.76 604.44 41.76L604.44 41.76Q607.61 41.76 609.52 43.52Q611.42 45.29 611.42 48.74L611.42 48.74Q611.42 50.04 611.06 51.98Q610.70 53.93 609.98 56.38L609.98 56.38L610.56 56.38Q614.23 48.82 618.37 45.25Q622.51 41.69 627.19 41.69L627.19 41.69Q629.64 41.69 631.37 42.55Q633.10 43.42 634.21 44.86Q635.33 46.30 635.83 48.13Q636.34 49.97 636.34 51.84L636.34 51.84Q636.34 55.51 634.57 58.21Q632.81 60.91 629.35 60.91L629.35 60.91Q627.05 60.91 625.68 59.62Q624.31 58.32 624.31 56.30L624.31 56.30Q624.31 54.07 625.79 52.67Q627.26 51.26 629.57 51.26L629.57 51.26Q630.29 51.26 630.94 51.44Q631.58 51.62 632.09 51.91L632.09 51.91Q631.51 49.75 629.82 48.78Q628.13 47.81 626.18 47.81L626.18 47.81Q623.59 47.81 621.04 49.28Q618.48 50.76 616.10 53.46Q613.73 56.16 611.60 59.94Q609.48 63.72 607.75 68.26L607.75 68.26Q607.25 69.77 607.61 70.88Q607.97 72 609.91 72L609.91 72Q613.01 72 615.67 71.93Q618.34 71.86 619.63 71.78L619.63 71.78Q619.06 73.30 618.48 74.84Q617.90 76.39 617.62 77.76ZM678.38 41.98L678.38 41.98Q679.97 42.26 681.66 42.52Q683.35 42.77 685.80 42.84L685.80 42.84Q683.64 47.45 681.91 51.66Q680.18 55.87 679.03 59.33Q677.88 62.78 677.27 65.45Q676.66 68.11 676.66 69.70L676.66 69.70Q676.66 71.14 677.30 71.82Q677.95 72.50 679.18 72.50L679.18 72.50Q680.76 72.50 682.34 71.42Q683.93 70.34 685.94 67.61L685.94 67.61Q686.66 68.90 687.46 70.02Q688.25 71.14 689.18 72.14L689.18 72.14Q686.30 75.02 683.50 76.68Q680.69 78.34 677.23 78.34L677.23 78.34Q673.92 78.34 671.98 76.61Q670.03 74.88 670.03 71.35L670.03 71.35Q670.03 70.42 670.18 69.26Q670.32 68.11 670.61 66.74L670.61 66.74L670.03 66.74Q666.50 73.01 662.40 75.74Q658.30 78.48 653.62 78.48L653.62 78.48Q648.72 78.48 645.98 75.38Q643.25 72.29 643.25 67.10L643.25 67.10Q643.25 62.64 644.90 58.07Q646.56 53.50 649.40 49.90Q652.25 46.30 656.10 44.03Q659.95 41.76 664.34 41.76L664.34 41.76Q668.52 41.76 671.33 43.81Q674.14 45.86 675.72 49.32L675.72 49.32Q676.30 47.59 676.98 45.76Q677.66 43.92 678.38 41.98ZM656.06 72.43L656.06 72.43Q658.08 72.43 660.28 71.57Q662.47 70.70 664.74 68.58Q667.01 66.46 669.38 62.78Q671.76 59.11 674.14 53.57L674.14 53.57Q672.19 50.33 670.03 48.96Q667.87 47.59 665.21 47.59L665.21 47.59Q662.11 47.59 659.38 49.36Q656.64 51.12 654.62 53.78Q652.61 56.45 651.46 59.69Q650.30 62.93 650.30 65.88L650.30 65.88Q650.30 69.26 651.74 70.85Q653.18 72.43 656.06 72.43Z"/></svg>