<svg xmlns="http://www.w3.org/2000/svg" xmlns:xlink="http://www.w3.org/1999/xlink" viewBox="0 10 440 170"><path fill="white" role="img" d="M34.42 33.84L34.42 33.84Q33.26 36.29 32.11 38.52Q30.96 40.75 29.95 42.77L29.95 42.77Q33.12 42.77 36.25 42.73Q39.38 42.70 41.98 42.66Q44.57 42.62 46.55 42.59Q48.53 42.55 49.54 42.48L49.54 42.48Q49.03 44.06 48.49 45.61Q47.95 47.16 47.59 48.67L47.59 48.67Q46.66 48.60 44.57 48.56Q42.48 48.53 39.78 48.49Q37.08 48.46 33.84 48.46Q30.60 48.46 27.29 48.46L27.29 48.46Q23.98 55.37 22.28 59.98Q20.59 64.58 20.59 67.68L20.59 67.68Q20.59 70.13 21.74 71.32Q22.90 72.50 25.13 72.50L25.13 72.50Q28.51 72.50 31.86 70.20Q35.21 67.90 38.95 62.86L38.95 62.86Q40.46 64.44 41.51 65.45Q42.55 66.46 43.70 67.18L43.70 67.18Q38.45 73.37 33.34 75.96Q28.22 78.55 23.33 78.48L23.33 78.48Q18.58 78.41 16.13 76.18Q13.68 73.94 13.68 69.34L13.68 69.34Q13.68 65.16 15.52 59.83Q17.35 54.50 20.09 48.46L20.09 48.46Q15.62 48.46 12.13 48.53Q8.64 48.60 7.34 48.67L7.34 48.67Q7.85 47.09 8.32 45.54Q8.78 43.99 9.00 42.48L9.00 42.48Q10.37 42.62 14.15 42.70Q17.93 42.77 22.68 42.77L22.68 42.77Q23.62 40.75 24.66 38.70Q25.70 36.65 26.64 34.56L26.64 34.56Q28.51 34.56 30.49 34.38Q32.47 34.20 34.42 33.84ZM67.39 41.98L67.39 41.98Q70.49 41.98 72.29 43.67Q74.09 45.36 74.09 48.67L74.09 48.67Q74.09 51.48 72.90 54.18Q71.71 56.88 70.31 59.44Q68.90 61.99 67.72 64.33Q66.53 66.67 66.53 68.76L66.53 68.76Q66.53 70.70 67.64 71.53Q68.76 72.36 70.56 72.36L70.56 72.36Q72.72 72.36 75.38 70.99Q78.05 69.62 80.96 66.28Q83.88 62.93 87.01 57.31Q90.14 51.70 93.24 43.20L93.24 43.20Q93.31 42.91 93.46 42.59Q93.60 42.26 93.67 41.98L93.67 41.98Q95.11 42.26 96.98 42.48Q98.86 42.70 100.94 42.77L100.94 42.77Q96.48 52.63 93.96 59.29Q91.44 65.95 91.44 69.62L91.44 69.62Q91.44 70.99 92.12 71.75Q92.81 72.50 94.25 72.50L94.25 72.50Q95.90 72.50 97.34 71.24Q98.78 69.98 100.37 67.68L100.37 67.68Q101.09 68.90 101.84 70.02Q102.60 71.14 103.61 72.14L103.61 72.14Q100.94 74.95 98.24 76.64Q95.54 78.34 92.16 78.34L92.16 78.34Q89.28 78.34 87.16 76.68Q85.03 75.02 85.03 71.50L85.03 71.50Q85.03 70.42 85.25 69.01Q85.46 67.61 85.97 65.81L85.97 65.81L85.25 65.81Q81.07 72.94 76.46 75.60Q71.86 78.26 67.54 78.26L67.54 78.26Q63.86 78.26 61.60 76.39Q59.33 74.52 59.33 70.63L59.33 70.63Q59.33 67.68 60.59 64.84Q61.85 61.99 63.32 59.36Q64.80 56.74 66.06 54.32Q67.32 51.91 67.32 49.82L67.32 49.82Q67.32 48.67 66.82 48.13Q66.31 47.59 65.38 47.59L65.38 47.59Q64.15 47.59 62.64 48.64Q61.13 49.68 58.90 52.85L58.90 52.85Q58.18 51.62 57.38 50.62Q56.59 49.61 55.73 48.74L55.73 48.74Q58.68 45.36 61.52 43.67Q64.37 41.98 67.39 41.98ZM128.02 68.33L128.02 68.33Q128.02 70.27 129.28 71.42Q130.54 72.58 133.34 72.58L133.34 72.58Q137.16 72.58 141.66 69.73Q146.16 66.89 151.13 60.05L151.13 60.05Q152.50 61.42 153.58 62.32Q154.66 63.22 155.66 63.94L155.66 63.94Q149.18 71.57 143.57 75.02Q137.95 78.48 131.62 78.48L131.62 78.48Q126.43 78.48 123.66 76.28Q120.89 74.09 120.89 69.62L120.89 69.62Q120.89 65.88 122.76 61.20Q124.63 56.52 126.83 52.02Q129.02 47.52 130.90 43.56Q132.77 39.60 132.77 37.22L132.77 37.22Q132.77 36.07 132.08 35.42Q131.40 34.78 129.96 34.78L129.96 34.78Q127.44 34.78 124.06 36.68Q120.67 38.59 115.34 42.70L115.34 42.70Q114.48 41.11 113.65 39.92Q112.82 38.74 112.10 37.80L112.10 37.80Q118.08 33.26 123.26 30.85Q128.45 28.44 132.77 28.44L132.77 28.44Q136.08 28.44 138.10 30.17Q140.11 31.90 140.11 35.35L140.11 35.35Q140.11 38.66 138.20 43.20Q136.30 47.74 134.06 52.34Q131.83 56.95 129.92 61.24Q128.02 65.52 128.02 68.33ZM186.41 30.02L186.41 30.02Q186.41 27.50 188.10 25.70Q189.79 23.90 192.89 23.90L192.89 23.90Q195.98 23.90 197.68 25.70Q199.37 27.50 199.37 30.02L199.37 30.02Q199.37 32.62 197.68 34.38Q195.98 36.14 192.89 36.14L192.89 36.14Q189.50 36.14 187.96 34.38Q186.41 32.62 186.41 30.02ZM177.98 70.27L177.98 70.27Q177.98 67.61 179.14 64.87Q180.29 62.14 181.69 59.62Q183.10 57.10 184.25 54.83Q185.40 52.56 185.40 50.83L185.40 50.83Q185.40 49.46 184.61 48.78Q183.82 48.10 182.23 48.10L182.23 48.10Q179.42 48.10 175.79 50.22Q172.15 52.34 166.97 57.53L166.97 57.53Q165.96 56.02 165.06 55.01Q164.16 54 163.22 52.99L163.22 52.99Q169.63 47.45 174.60 44.64Q179.57 41.83 184.54 41.83L184.54 41.83Q188.06 41.83 190.37 43.60Q192.67 45.36 192.67 48.89L192.67 48.89Q192.67 50.98 191.45 53.68Q190.22 56.38 188.78 59.11Q187.34 61.85 186.12 64.44Q184.90 67.03 184.90 68.90L184.90 68.90Q184.90 70.85 185.87 71.75Q186.84 72.65 189.14 72.65L189.14 72.65Q192.31 72.65 196.06 70.45Q199.80 68.26 203.33 63.14L203.33 63.14Q204.26 64.15 205.45 65.16Q206.64 66.17 207.79 66.89L207.79 66.89Q202.82 73.37 197.64 75.92Q192.46 78.48 187.78 78.48L187.78 78.48Q183.02 78.48 180.50 76.39Q177.98 74.30 177.98 70.27ZM243.29 41.90L243.29 41.90Q251.64 41.83 255.85 45.86Q260.06 49.90 259.99 56.52L259.99 56.52Q259.99 60.41 258.37 64.33Q256.75 68.26 253.58 71.39Q250.42 74.52 245.77 76.50Q241.13 78.48 235.22 78.48L235.22 78.48Q226.73 78.48 222.55 74.41Q218.38 70.34 218.38 63.79L218.38 63.79Q218.38 59.90 220.00 55.98Q221.62 52.06 224.78 48.92Q227.95 45.79 232.60 43.85Q237.24 41.90 243.29 41.90ZM242.42 47.59L242.42 47.59Q238.54 47.59 235.37 49.00Q232.20 50.40 230.00 52.63Q227.81 54.86 226.58 57.71Q225.36 60.55 225.36 63.36L225.36 63.36Q225.36 68.11 228.17 70.49Q230.98 72.86 235.94 72.86L235.94 72.86Q239.76 72.86 242.93 71.39Q246.10 69.91 248.36 67.64Q250.63 65.38 251.89 62.53Q253.15 59.69 253.15 56.95L253.15 56.95Q253.15 52.20 250.20 49.86Q247.25 47.52 242.42 47.59Z"/><path fill="#d6ff00" role="img" d="M133.70 157.76L133.70 157.76Q132.98 157.69 131.65 157.65Q130.32 157.62 128.88 157.62Q127.44 157.62 126.00 157.65Q124.56 157.69 123.62 157.76L123.62 157.76Q123.41 154.30 122.94 149.19Q122.47 144.08 121.93 138.79Q121.39 133.50 120.85 128.71Q120.31 123.92 119.95 121.18L119.95 121.18Q119.74 119.60 118.91 118.77Q118.08 117.94 116.28 117.94L116.28 117.94Q115.85 117.94 115.31 117.94Q114.77 117.94 114.26 118.02L114.26 118.02Q114.55 116.94 115.13 115.21Q115.70 113.48 115.92 112.54L115.92 112.54Q116.93 112.62 120.06 112.65Q123.19 112.69 126.72 112.69Q130.25 112.69 133.38 112.65Q136.51 112.62 137.52 112.54L137.52 112.54Q136.94 113.91 136.48 115.28Q136.01 116.65 135.65 118.02L135.65 118.02Q134.93 117.94 133.99 117.94Q133.06 117.94 131.04 117.94L131.04 117.94Q128.66 117.94 127.66 118.95Q126.65 119.96 126.72 121.98L126.72 121.98Q126.79 124.14 127.15 127.99Q127.51 131.84 127.98 136.23Q128.45 140.62 128.99 145.02Q129.53 149.41 129.96 152.72L129.96 152.72Q132.12 149.19 134.64 145.23Q137.16 141.27 139.61 137.42Q142.06 133.57 144.29 129.93Q146.52 126.30 148.25 123.56L148.25 123.56Q149.04 122.19 149.40 121.36Q149.76 120.54 149.76 119.74L149.76 119.74Q149.76 118.81 149.04 118.38Q148.32 117.94 146.52 117.94L146.52 117.94Q145.87 117.94 144.47 117.94Q143.06 117.94 142.27 118.02L142.27 118.02Q142.63 116.94 143.17 115.21Q143.71 113.48 144.00 112.54L144.00 112.54Q145.01 112.62 148.21 112.65Q151.42 112.69 155.02 112.69Q158.62 112.69 161.78 112.65Q164.95 112.62 165.96 112.54L165.96 112.54Q165.38 113.91 164.84 115.28Q164.30 116.65 164.02 118.02L164.02 118.02Q163.58 118.02 163.08 117.98Q162.58 117.94 162.14 117.94L162.14 117.94Q160.42 117.94 159.48 118.59Q158.54 119.24 157.18 121.11L157.18 121.11Q155.52 123.42 152.50 127.99Q149.47 132.56 146.09 137.85Q142.70 143.14 139.36 148.54Q136.01 153.94 133.70 157.76ZM186.41 110.02L186.41 110.02Q186.41 107.50 188.10 105.70Q189.79 103.90 192.89 103.90L192.89 103.90Q195.98 103.90 197.68 105.70Q199.37 107.50 199.37 110.02L199.37 110.02Q199.37 112.62 197.68 114.38Q195.98 116.14 192.89 116.14L192.89 116.14Q189.50 116.14 187.96 114.38Q186.41 112.62 186.41 110.02ZM177.98 150.27L177.98 150.27Q177.98 147.61 179.14 144.87Q180.29 142.14 181.69 139.62Q183.10 137.10 184.25 134.83Q185.40 132.56 185.40 130.83L185.40 130.83Q185.40 129.46 184.61 128.78Q183.82 128.10 182.23 128.10L182.23 128.10Q179.42 128.10 175.79 130.22Q172.15 132.34 166.97 137.53L166.97 137.53Q165.96 136.02 165.06 135.01Q164.16 134 163.22 132.99L163.22 132.99Q169.63 127.45 174.60 124.64Q179.57 121.83 184.54 121.83L184.54 121.83Q188.06 121.83 190.37 123.60Q192.67 125.36 192.67 128.89L192.67 128.89Q192.67 130.98 191.45 133.68Q190.22 136.38 188.78 139.11Q187.34 141.85 186.12 144.44Q184.90 147.03 184.90 148.90L184.90 148.90Q184.90 150.85 185.87 151.75Q186.84 152.65 189.14 152.65L189.14 152.65Q192.31 152.65 196.06 150.45Q199.80 148.26 203.33 143.14L203.33 143.14Q204.26 144.15 205.45 145.16Q206.64 146.17 207.79 146.89L207.79 146.89Q202.82 153.37 197.64 155.92Q192.46 158.48 187.78 158.48L187.78 158.48Q183.02 158.48 180.50 156.39Q177.98 154.30 177.98 150.27ZM243.29 127.45L243.29 127.45Q236.23 127.45 231.55 131.16Q226.87 134.86 225.72 140.19L225.72 140.19Q239.11 139.98 245.34 138.10Q251.57 136.23 251.57 132.42L251.57 132.42Q251.57 130.04 249.44 128.74Q247.32 127.45 243.29 127.45ZM238.18 153.01L238.18 153.01Q242.06 153.01 246.67 151.64Q251.28 150.27 254.95 146.60L254.95 146.60Q255.89 148.04 256.75 149.12Q257.62 150.20 258.41 151.06L258.41 151.06Q253.08 155.46 247.68 156.97Q242.28 158.48 236.88 158.48L236.88 158.48Q227.59 158.48 223.06 154.52Q218.52 150.56 218.52 144.08L218.52 144.08Q218.52 139.83 220.21 135.80Q221.90 131.77 225.14 128.67Q228.38 125.58 233.21 123.70Q238.03 121.83 244.15 121.83L244.15 121.83Q251.35 121.83 254.84 124.75Q258.34 127.66 258.34 131.77L258.34 131.77Q258.34 138.25 250.06 141.45Q241.78 144.66 225.36 144.37L225.36 144.37Q225.65 148.83 228.89 150.92Q232.13 153.01 238.18 153.01ZM292.97 110.02L292.97 110.02Q292.97 107.50 294.66 105.70Q296.35 103.90 299.45 103.90L299.45 103.90Q302.54 103.90 304.24 105.70Q305.93 107.50 305.93 110.02L305.93 110.02Q305.93 112.62 304.24 114.38Q302.54 116.14 299.45 116.14L299.45 116.14Q296.06 116.14 294.52 114.38Q292.97 112.62 292.97 110.02ZM284.54 150.27L284.54 150.27Q284.54 147.61 285.70 144.87Q286.85 142.14 288.25 139.62Q289.66 137.10 290.81 134.83Q291.96 132.56 291.96 130.83L291.96 130.83Q291.96 129.46 291.17 128.78Q290.38 128.10 288.79 128.10L288.79 128.10Q285.98 128.10 282.35 130.22Q278.71 132.34 273.53 137.53L273.53 137.53Q272.52 136.02 271.62 135.01Q270.72 134 269.78 132.99L269.78 132.99Q276.19 127.45 281.16 124.64Q286.13 121.83 291.10 121.83L291.10 121.83Q294.62 121.83 296.93 123.60Q299.23 125.36 299.23 128.89L299.23 128.89Q299.23 130.98 298.01 133.68Q296.78 136.38 295.34 139.11Q293.90 141.85 292.68 144.44Q291.46 147.03 291.46 148.90L291.46 148.90Q291.46 150.85 292.43 151.75Q293.40 152.65 295.70 152.65L295.70 152.65Q298.87 152.65 302.62 150.45Q306.36 148.26 309.89 143.14L309.89 143.14Q310.82 144.15 312.01 145.16Q313.20 146.17 314.35 146.89L314.35 146.89Q309.38 153.37 304.20 155.92Q299.02 158.48 294.34 158.48L294.34 158.48Q289.58 158.48 287.06 156.39Q284.54 154.30 284.54 150.27ZM351.22 157.76L351.22 157.76Q349.63 157.69 345.20 157.65Q340.78 157.62 335.81 157.62Q330.84 157.62 326.48 157.65Q322.13 157.69 320.69 157.76L320.69 157.76Q321.26 156.32 321.84 154.81Q322.42 153.30 322.70 151.78L322.70 151.78Q323.50 151.86 325.40 151.93Q327.31 152 329.76 152L329.76 152Q331.27 152 332.17 151.39Q333.07 150.78 333.86 148.76L333.86 148.76Q336.46 142.35 337.79 137.60Q339.12 132.85 339.12 130.47L339.12 130.47Q339.12 128.96 338.58 128.13Q338.04 127.30 336.67 127.30L336.67 127.30Q334.87 127.30 332.75 128.74Q330.62 130.18 328.39 132.85L328.39 132.85Q327.46 131.48 326.66 130.44Q325.87 129.39 325.08 128.60L325.08 128.60Q328.54 125.29 331.74 123.52Q334.94 121.76 338.04 121.76L338.04 121.76Q341.21 121.76 343.12 123.52Q345.02 125.29 345.02 128.74L345.02 128.74Q345.02 130.04 344.66 131.98Q344.30 133.93 343.58 136.38L343.58 136.38L344.16 136.38Q347.83 128.82 351.97 125.25Q356.11 121.69 360.79 121.69L360.79 121.69Q363.24 121.69 364.97 122.55Q366.70 123.42 367.81 124.86Q368.93 126.30 369.43 128.13Q369.94 129.97 369.94 131.84L369.94 131.84Q369.94 135.51 368.17 138.21Q366.41 140.91 362.95 140.91L362.95 140.91Q360.65 140.91 359.28 139.62Q357.91 138.32 357.91 136.30L357.91 136.30Q357.91 134.07 359.39 132.67Q360.86 131.26 363.17 131.26L363.17 131.26Q363.89 131.26 364.54 131.44Q365.18 131.62 365.69 131.91L365.69 131.91Q365.11 129.75 363.42 128.78Q361.73 127.81 359.78 127.81L359.78 127.81Q357.19 127.81 354.64 129.28Q352.08 130.76 349.70 133.46Q347.33 136.16 345.20 139.94Q343.08 143.72 341.35 148.26L341.35 148.26Q340.85 149.77 341.21 150.88Q341.57 152 343.51 152L343.51 152Q346.61 152 349.27 151.93Q351.94 151.86 353.23 151.78L353.23 151.78Q352.66 153.30 352.08 154.84Q351.50 156.39 351.22 157.76ZM411.98 121.98L411.98 121.98Q413.57 122.26 415.26 122.52Q416.95 122.77 419.40 122.84L419.40 122.84Q417.24 127.45 415.51 131.66Q413.78 135.87 412.63 139.33Q411.48 142.78 410.87 145.45Q410.26 148.11 410.26 149.70L410.26 149.70Q410.26 151.14 410.90 151.82Q411.55 152.50 412.78 152.50L412.78 152.50Q414.36 152.50 415.94 151.42Q417.53 150.34 419.54 147.61L419.54 147.61Q420.26 148.90 421.06 150.02Q421.85 151.14 422.78 152.14L422.78 152.14Q419.90 155.02 417.10 156.68Q414.29 158.34 410.83 158.34L410.83 158.34Q407.52 158.34 405.58 156.61Q403.63 154.88 403.63 151.35L403.63 151.35Q403.63 150.42 403.78 149.26Q403.92 148.11 404.21 146.74L404.21 146.74L403.63 146.74Q400.10 153.01 396.00 155.74Q391.90 158.48 387.22 158.48L387.22 158.48Q382.32 158.48 379.58 155.38Q376.85 152.29 376.85 147.10L376.85 147.10Q376.85 142.64 378.50 138.07Q380.16 133.50 383.00 129.90Q385.85 126.30 389.70 124.03Q393.55 121.76 397.94 121.76L397.94 121.76Q402.12 121.76 404.93 123.81Q407.74 125.86 409.32 129.32L409.32 129.32Q409.90 127.59 410.58 125.76Q411.26 123.92 411.98 121.98ZM389.66 152.43L389.66 152.43Q391.68 152.43 393.88 151.57Q396.07 150.70 398.34 148.58Q400.61 146.46 402.98 142.78Q405.36 139.11 407.74 133.57L407.74 133.57Q405.79 130.33 403.63 128.96Q401.47 127.59 398.81 127.59L398.81 127.59Q395.71 127.59 392.98 129.36Q390.24 131.12 388.22 133.78Q386.21 136.45 385.06 139.69Q383.90 142.93 383.90 145.88L383.90 145.88Q383.90 149.26 385.34 150.85Q386.78 152.43 389.66 152.43Z"/></svg>